<svg width="38" height="37" viewBox="0 0 38 37" fill="none" xmlns="http://www.w3.org/2000/svg">
<circle cx="19.157" cy="18.5" r="18.1172" stroke="black" stroke-width="0.765517"/>
<path d="M10.7478 18.198C10.3955 18.198 10.1099 18.4836 10.1099 18.8359C10.1099 19.1883 10.3955 19.4739 10.7478 19.4739V18.198ZM27.3444 19.287C27.5935 19.0379 27.5935 18.634 27.3444 18.3849L23.2846 14.3251C23.0355 14.076 22.6316 14.076 22.3824 14.3251C22.1333 14.5742 22.1333 14.9781 22.3824 15.2273L25.9911 18.8359L22.3824 22.4446C22.1333 22.6937 22.1333 23.0977 22.3824 23.3468C22.6316 23.5959 23.0355 23.5959 23.2846 23.3468L27.3444 19.287ZM10.7478 19.4739H26.8933V18.198H10.7478V19.4739Z" fill="black"/>
</svg>
